<?xml version="1.0" encoding="utf-8"?>
<!-- Generator: Adobe Illustrator 21.0.0, SVG Export Plug-In . SVG Version: 6.00 Build 0)  -->
<svg version="1.1" id="Layer_1" xmlns="http://www.w3.org/2000/svg" xmlns:xlink="http://www.w3.org/1999/xlink" x="0px" y="0px"
	 viewBox="0 0 200 200" style="enable-background:new 0 0 200 200;" xml:space="preserve">
<style type="text/css">
	.st0{fill:#FFFFFF;}
</style>
<g>
	<path class="st0" d="M11.9,196.6c-2.3,0-4.4-0.9-6-2.5c-1.6-1.6-2.5-3.7-2.5-6c0-2.3,0.9-4.4,2.5-6l81.5-81.5L5.8,19
		c-3.3-3.3-3.3-8.7,0-12.1c1.6-1.6,3.8-2.5,6-2.5c2.3,0,4.4,0.9,6,2.5l81.5,81.5l81.5-81.5c1.6-1.6,3.8-2.5,6-2.5s4.4,0.9,6,2.5
		c1.6,1.6,2.5,3.8,2.5,6c0,2.3-0.9,4.4-2.5,6l-81.5,81.5L193,182c1.6,1.6,2.5,3.8,2.5,6c0,2.3-0.9,4.4-2.5,6c-1.6,1.6-3.8,2.5-6,2.5
		l0,0c-2.3,0-4.4-0.9-6-2.5l-81.5-81.5l-81.5,81.5C16.3,195.7,14.1,196.6,11.9,196.6z"/>
</g>
</svg>
