<?xml version="1.0" encoding="utf-8"?>
<!-- Generator: Adobe Illustrator 21.0.0, SVG Export Plug-In . SVG Version: 6.00 Build 0)  -->
<svg version="1.1" id="Layer_1" xmlns="http://www.w3.org/2000/svg" xmlns:xlink="http://www.w3.org/1999/xlink" x="0px" y="0px"
	 viewBox="0 0 200 145" style="enable-background:new 0 0 200 145;" xml:space="preserve">
<style type="text/css">
	.st0{fill:#F3603F;}
</style>
<g>
	<path class="st0" d="M161.8,5.5H9.8C7.1,5.5,5,6.9,5,8.7v12.7c0,1.8,2.1,3.2,4.8,3.2h152c2.6,0,4.8-1.4,4.8-3.2V8.7
		C166.5,6.9,164.4,5.5,161.8,5.5z"/>
	<path class="st0" d="M190.2,62.5h-152c-2.6,0-4.8,1.4-4.8,3.2v12.7c0,1.8,2.1,3.2,4.8,3.2h152c2.6,0,4.8-1.4,4.8-3.2V65.7
		C195,63.9,192.9,62.5,190.2,62.5z"/>
	<path class="st0" d="M161.8,119.5H9.8c-2.6,0-4.8,1.4-4.8,3.2v12.7c0,1.8,2.1,3.2,4.8,3.2h152c2.6,0,4.8-1.4,4.8-3.2v-12.7
		C166.5,120.9,164.4,119.5,161.8,119.5z"/>
</g>
</svg>
